<?xml version="1.0" encoding="iso-8859-1"?>
<!-- Uploaded to: SVG Repo, www.svgrepo.com, Generator: SVG Repo Mixer Tools -->
<!DOCTYPE svg PUBLIC "-//W3C//DTD SVG 1.1//EN" "http://www.w3.org/Graphics/SVG/1.1/DTD/svg11.dtd">
<svg version="1.1" id="Capa_1" xmlns="http://www.w3.org/2000/svg" xmlns:xlink="http://www.w3.org/1999/xlink" 
	 width="800px" height="800px" viewBox="0 0 94 94" xml:space="preserve">
<g>
	<g>
		<path fill="#F3E8FF" d="M82.839,44.137l-0.045-0.438l0.093-0.013c0.021,0,0.036,0,0.049,0.013c0.004,0,0.023,0.012,0.047,0.055l0.258,0.334
			l0.215-0.022l-0.325-0.417c-0.001-0.004-0.002-0.007-0.003-0.008c0.029-0.014,0.051-0.025,0.068-0.039
			c0.082-0.063,0.117-0.153,0.104-0.264c-0.012-0.115-0.063-0.195-0.155-0.238c-0.057-0.027-0.129-0.035-0.227-0.027l-0.372,0.045
			l0.106,1.036L82.839,44.137z M82.938,43.258c0.059-0.007,0.1-0.003,0.131,0.013c0.031,0.012,0.047,0.041,0.049,0.088
			c0.006,0.049-0.004,0.081-0.035,0.103c-0.012,0.008-0.042,0.023-0.12,0.033v0.001l-0.187,0.021l-0.022-0.236L82.938,43.258z"/>
		<path fill="#F3E8FF" d="M89,0H5C2.239,0,0,2.238,0,5v84c0,2.762,2.239,5,5,5h84c2.762,0,5-2.238,5-5V5C94,2.238,91.762,0,89,0z M82.855,42.674
			c0.512-0.055,0.965,0.32,1.024,0.833c0.054,0.511-0.319,0.97-0.831,1.022c-0.513,0.053-0.969-0.319-1.021-0.829
			c-0.055-0.515,0.324-0.968,0.822-1.028L82.855,42.674z M78.727,43.613h0.006c1.785,1.595,0.785,4.165-0.765,3.982
			C78.45,46.83,78.896,45.289,78.727,43.613z M77.555,40.797c0.004,0.002,0.008,0.002,0.012,0.004
			c-0.332,2.064-0.115,6.01-2.619,7.904c0,0.001,0,0.002,0,0.002h-0.002c0,0,0.002-0.001,0.003-0.002
			c0.917-2.985,0.253-5.163-1.755-6.229C73.656,42.298,77.555,40.797,77.555,40.797z M72.936,44.852h0.004c0,0.002,0,0.004,0,0.006
			c1.529,2.033,0.815,3.992-0.741,2.949c0,0,0.755-1.715,0.741-2.949C72.938,44.855,72.936,44.854,72.936,44.852z M67.997,43.583
			c0.356-0.139,4.022-1.547,4.022-1.547c0.002,0.003,0.008,0.003,0.012,0.004c-0.062,1.913-1.021,5.565-2.824,7.369h0.003
			c-0.358,0.228-0.978,0.394-1.372-0.089C69.188,47.023,69.507,45.167,67.997,43.583z M66.768,44.402
			c0.641,0.817,1.358,1.865,0.062,3.543l0.001-0.004C66.557,47.307,66.232,45.461,66.768,44.402z M66.123,42.247
			c0.002,0,0.005,0.002,0.007,0.003c-1.187,1.865-1.625,4.467-0.299,6.911h-0.002c-0.431,1.095-2.808,0.63-3.122-0.321
			c1.01-1.764,1.625-3.877,1.754-5.975C64.709,42.774,66.123,42.247,66.123,42.247z M61.793,37.148
			c0.286,0.774,2.086,5.418-0.089,9.645c-0.793-2.018-0.688-6.85,0.091-9.639L61.793,37.148z M60.988,34.452
			c0.004,0.004,0.007,0.005,0.011,0.008c-1.24,4.218-2.453,7.908-0.633,14.86c-0.206,0.875-0.995,1.875-2.419,0.006h0.002
			c-1.453-3.725,1.919-8.843-0.895-13.361C57.425,35.816,60.922,34.405,60.988,34.452z M56.291,45.266
			c0.001,0.005,0.002,0.009,0.003,0.014H56.29C56.29,45.274,56.291,45.271,56.291,45.266c-1.128-4.229-1.518-6.618-0.744-8.907
			C56.454,38.051,56.456,41.054,56.291,45.266z M54.102,44.978c0.403,1.261,0.606,1.935,1.39,3.518
			c-0.583,0.751-1.997,1.479-2.785-0.309l0.005-0.004C51.83,46.196,52.812,45.172,54.102,44.978z M46.543,42.1
			c0.121-1.924,0.655-3.776,1.721-5.537c0.082-0.134,6.84-2.761,6.895-2.714c0.001,0.001,0.004,0.003,0.006,0.005
			c-1.641,2.654-2.18,5.468-1.48,9.243c-4.5,0.576-3.547,4.867-2.244,6.752c-0.137,0.684-1.277,0.793-1.407,0.356v0.001
			l-0.003-0.006c0,0.002,0.002,0.003,0.003,0.005c-1.023-3.725-1.777-8.199-3.494-8.105C46.54,42.101,46.541,42.1,46.543,42.1z
			 M47.637,49.254c-0.347,1.508-1.738,1.674-2.202,1.402c0.001,0.001,0.002,0.002,0.003,0.003l-0.006-0.004l0.002,0.001
			c-1.353-0.805-0.532-5.794,1.004-6.081C46.769,46.069,46.925,46.938,47.637,49.254z M45.716,42.332c0,0,0.242-0.087,0.363-0.127
			c0.036-0.014,0.074-0.024,0.112-0.036c-1.504,0.489-3.876,3.459-3.183,8.927c-0.245,1.303-2.267,1.137-2.864,0.777H40.14
			c2.06-1.868,1.943-5.855-0.645-7.371L45.716,42.332z M38.789,50.896h-0.005c-1.071-0.736-1.376-3.095,0.26-4.558
			C39.975,46.461,40.808,48.762,38.789,50.896z M32.093,46.899c1.316-0.765,5.863-2.354,6.678-2.642
			c0.017-0.007,0.137-0.047,0.125-0.04c0.001,0,0.001,0.002,0.001,0.002c-3.367,1.885-3.5,6.954-1.49,8.32
			c-1,0.98-1.655,1.124-2.512-0.078c0.667-2.311,0.195-4.131-1.167-5.821l-0.707,0.688c-0.379-0.133-0.781-0.217-1.189-0.273
			C31.914,47.004,32.066,46.91,32.093,46.899z M29.104,47.41c0.252-0.1,0.722-0.348,1.018-0.374c0.005,0,0.009,0,0.014,0
			c0.014,0.091,0.927,6.19,0.402,6.84c-0.488,0.623-1.107-0.317-1.107-0.317l-0.005,0.006c0,0,0.109-2.785-0.094-4.362
			c-0.083-0.667-0.227-1.238-0.429-1.716C28.97,47.46,29.037,47.436,29.104,47.41z M23.929,39.53
			c0.868,2.355,0.353,8.558-0.721,10.239l0.715-10.233L23.929,39.53z M75.504,52.848c-1.63,0.307-3.236,0.141-4.738-0.492
			c-1.513,0.675-4.231,1.472-5.524,0.446c-0.985,0.409-2.122,1.025-3.193,1.077c-0.644,0.027-1.235-0.078-1.833-0.258
			c-0.504,0.188-1.011,0.357-1.521,0.488c-1.144,0.298-2.354,0.228-3.381-0.31c-0.697,0.269-1.397,0.529-2.104,0.773
			c-1.309,0.452-2.393-0.058-3.225-0.986c-0.312,0.181-2.738,1.247-3.978,0.33c-0.331,0.127-2.767,1.326-3.73,0.507
			c-0.695,0.279-1.346,0.557-1.992,0.733c-0.002,0-0.003,0.001-0.005,0.001c0,0,0.001,0,0.002-0.001
			c-0.729,0.2-1.462,0.272-2.241,0.095c-0.056,0.021-0.113,0.042-0.168,0.064c-1.716,0.67-3.229,1.406-4.95,1.158
			c-1.082,0.43-2.164,0.889-3.27,1.254c-0.208,0.07-0.421,0.146-0.64,0.172c-0.392,0.054-0.801,0.029-1.142-0.174
			c-0.344-0.205-0.603-0.49-0.81-0.826C26.81,57,26.56,57.1,26.31,57.195c-0.964,0.377-3.048,1.623-4.216,1.005
			c-0.369-0.199-0.627-0.437-0.81-0.724c-1.512,0.623-3.036,1.219-4.561,1.811c-1.093,0.423-2.378,1.143-3.589,0.75
			c-0.56-0.18-1.067-0.479-1.558-0.788c-0.115,0.042-0.232,0.086-0.351,0.13c-0.638,0.251-1.277,0.502-1.916,0.754
			c-0.345-1.863-0.678-3.779-0.631-5.685c0.021-0.864,0.083-1.73,0.276-2.572c0.045-0.211,0.097-0.422,0.153-0.631
			c-0.15,0.037-0.302,0.062-0.457,0.069c-0.321,0-0.649-0.013-0.964-0.097c-0.369-0.104-1.66-0.569-1.108-1.095
			c0.678-0.641,1.663-0.9,2.507-1.242c0.009-0.003,0.02-0.007,0.03-0.011c0.25-1.206,0.233-2.419,0-3.646
			c-0.028-0.147,6.121-2.454,6.305-2.535c0.179-1.316,0.469-2.612,0.994-3.809l6.894-2.717c0.003,0.003,0.006,0.005,0.009,0.008
			c-1.733,3.821-1.116,12.042-2.204,19.076c-2.154-0.612-4.612-3.254-3.071-7.111c0.946,0.056,1.896-0.096,2.809-0.534
			c-0.035-0.381-0.221-0.856-0.726-1.119c-0.505-0.266-1.225-0.479-2.179-0.039c0.089-0.286,0.334-0.956,0.316-1.888
			c-0.011-0.439-0.152-1.999-2.238-2.06c0.325,1.555,0.23,3.027-0.144,4.241c-0.65-0.104-1.841-0.126-2.565,0.873
			c0.214,0.714,1.693,1.162,2.706,0.902c-0.781,2.831-0.373,5.781,0.198,8.881l1.384-1.465c1.602,1.023,3.115,2.428,5.39,0.603
			c2.086-1.677,2.816-9.2,3.61-8.943c0.16,0.054,0.74,3.519,1.285,6.556c0.145,0.812,1.198,1.758,2.361,1.416
			c0.399-0.119,1.629-0.4,1.686-1.938c0.047-0.495-0.106-4.805-0.106-4.805l1.283,0.328c-0.049,6.773,2.497,7.295,5.63,4.31
			c2.397,1.001,4.531-0.097,5.206-1.313c2.172,1.188,4.073,0.305,4.508-1.172c1.002,1.521,2.705,1.375,3.958-0.154
			c1.38,1.229,3.086,1.168,4.003-0.576c1.416,2.187,3.642,2.472,5.06,0.322c1.402,1.287,3.983,1.264,5.318,0.213
			c2.305,0.822,3.624,0.215,4.63-1.211c1.915,1.592,3.771,1.494,5.608-0.252h0.005c2.19,1.19,4.588,1.179,6.616,0.463
			C81.206,50.802,75.968,52.762,75.504,52.848z M80.712,48.458c0.729-1.694,0.759-3.264,0.289-4.549
			c-0.083-0.229-0.185-0.441-0.297-0.656l1.876-0.714l0.002,0.001c-0.479,0.164-0.801,0.642-0.745,1.17
			c0.063,0.612,0.611,1.058,1.226,0.995c0.612-0.063,1.061-0.614,0.996-1.227c-0.022-0.245-0.123-0.461-0.272-0.627l3.733-1.418
			c0.006,0.007,0.01,0.016,0.015,0.024h-0.005C87.814,44.613,85.66,48.23,80.712,48.458z"/>
	</g>
</g>
</svg>